<?xml version="1.0" encoding="UTF-8"?>
<!-- Created with Inkscape (http://www.inkscape.org/) -->
<svg width="71.1mm" height="35.5mm" version="1.1" viewBox="0 0 71.1 35.5" xmlns="http://www.w3.org/2000/svg">
 <g transform="translate(-111.68 -196.61)">
  <path d="m112.18 203.01v15.259c-0.0375 3.0777 1.0634 6.1565 3.044 8.5125 2.4524 2.9173 6.2037 4.6549 10.012 4.8104 4.169 0.17019 8.4298-1.5852 11.077-4.8104 1.9411-2.3649 2.9759-5.4556 2.8503-8.5125l-0.039-15.939m-10.297 7.9007c0.99839-0.54384 2.0437-1.0016 3.1204-1.3664 0.4086-0.13844 0.82409-0.26407 1.2519-0.31968 0.42781-0.0556 0.87087-0.0389 1.2787 0.10183 0.64552 0.22284 1.1712 0.76668 1.372 1.4194m0.0245 2.4763c-0.91561 0.69129-2.1414 0.9541-3.26 0.6989-1.2412-0.28319-2.2722-1.1472-3.1084-2.1072-0.83621-0.95996-1.5301-2.0405-2.4072-2.9632-0.77495-0.81519-1.6918-1.5011-2.7134-1.9717-1.0216-0.47058-2.1489-0.72252-3.2731-0.68458-1.2146 0.041-2.4159 0.42381-3.4302 1.0931s-1.8388 1.6232-2.3543 2.7237m0.0315 8.9374c0.26777-0.79424 0.79391-1.499 1.4792-1.9816s1.5263-0.74024 2.3643-0.72456c1.3123 0.0246 2.5407 0.70149 3.5109 1.5855 0.97019 0.88402 1.7266 1.9718 2.522 3.0159 0.68113 0.89408 1.4021 1.7681 2.2664 2.4867s1.8847 1.2792 2.993 1.4664c0.85712 0.14476 1.7519 0.0602 2.5667-0.24255 0.81483-0.30276 1.5477-0.82297 2.1024-1.4923m-19.808-10.152c0.45152-1.222 1.3443-2.2757 2.4757-2.9216 1.1314-0.64596 2.4926-0.87927 3.7745-0.64694 1.4308 0.25932 2.7132 1.0703 3.776 2.0627 1.0628 0.99246 1.9341 2.168 2.8282 3.3148 0.67254 0.86257 1.368 1.7194 2.2166 2.4095s1.8695 1.2096 2.9597 1.2974c0.92551 0.0745 1.8739-0.17293 2.645-0.69018m-20.704-7.7248v8.9374c0 1.8739 0.87763 6.3959 4.736 8.5125 3.8583 2.1166 7.897 1.9193 10.905 0 3.0076-1.9193 5.0882-4.0695 5.0882-8.5125l-0.2066-8.2028m-6.8954-11.828a1.1331 1.1331 0 0 1-1.1331 1.1331 1.1331 1.1331 0 0 1-1.1331-1.1331 1.1331 1.1331 0 0 1 1.1331-1.1331 1.1331 1.1331 0 0 1 1.1331 1.1331zm-3.4782 3.2706a1.3972 1.3972 0 0 1-1.3972 1.3972 1.3972 1.3972 0 0 1-1.3972-1.3972 1.3972 1.3972 0 0 1 1.3972-1.3972 1.3972 1.3972 0 0 1 1.3972 1.3972zm6.0138 2.8729a2.3268 2.3268 0 0 1-2.3268 2.3268 2.3268 2.3268 0 0 1-2.3268-2.3268 2.3268 2.3268 0 0 1 2.3268-2.3268 2.3268 2.3268 0 0 1 2.3268 2.3268z" fill="none" stroke="#235478" stroke-linecap="round" stroke-linejoin="round"/>
  <text x="145.40501" y="213.23283" fill="#235478" font-family="Rasa" font-size="10.231px" stroke-width=".26458" word-spacing="0px" style="line-height:0.85" xml:space="preserve"><tspan x="145.40501" y="213.23283">Sychar</tspan><tspan x="145.40501" y="222.70578">Suppliers</tspan></text>
 </g>
</svg>
